<svg xmlns="http://www.w3.org/2000/svg" width="58.602" height="57.657" viewBox="0 0 58.602 57.657">
  <g id="Group_1399" data-name="Group 1399" transform="translate(-13256 21776)">
    <path id="Path_3876" data-name="Path 3876" d="M14,52h1.89v1.89H14Z" transform="translate(13254.287 -21779.795)" fill="#ee3b4f"/>
    <path id="Path_3877" data-name="Path 3877" d="M14,56h1.89v1.89H14Z" transform="translate(13254.287 -21780.014)" fill="#ee3b4f"/>
    <path id="Path_3878" data-name="Path 3878" d="M59.6,1H8.562V30.042a7.534,7.534,0,0,0,1.556,11.32A13.25,13.25,0,0,0,1,53.931v4.726H27.466V53.931a13.25,13.25,0,0,0-9.117-12.569,7.581,7.581,0,0,0,3.2-4.444h5.92v10.4A2.839,2.839,0,0,0,30.3,50.15H52.986a2.839,2.839,0,0,0,2.836-2.836v-10.4H59.6Zm-1.89,1.89V8.562H10.452V2.89ZM14.233,47.315a4.732,4.732,0,0,0,4.617-3.734,11.228,11.228,0,0,1,1.582.864,8.475,8.475,0,0,0-1.474,4.76v7.562H9.507V49.205a8.48,8.48,0,0,0-1.474-4.761,11.325,11.325,0,0,1,1.582-.864A4.732,4.732,0,0,0,14.233,47.315ZM2.89,53.931a11.3,11.3,0,0,1,3.654-8.315,6.589,6.589,0,0,1,1.072,3.589v7.562H2.89Zm22.685,0v2.836H20.849V49.205a6.589,6.589,0,0,1,1.072-3.589A11.3,11.3,0,0,1,25.575,53.931ZM17.032,42.953a2.82,2.82,0,0,1-5.6,0,10.944,10.944,0,0,1,5.6,0Zm-2.8-2.254A5.671,5.671,0,1,1,19.9,35.027,5.677,5.677,0,0,1,14.233,40.7Zm39.7,6.616a.946.946,0,0,1-.945.945H30.3a.946.946,0,0,1-.945-.945V32.192a.946.946,0,0,1,.945-.945H52.986a.946.946,0,0,1,.945.945Zm1.89-12.288V32.192a2.839,2.839,0,0,0-2.836-2.836H30.3a2.839,2.839,0,0,0-2.836,2.836v2.836H21.794a7.548,7.548,0,0,0-11.342-6.539V10.452h47.26V35.027Z" transform="translate(13255 -21777)" fill="#ee3b4f"/>
    <path id="Path_3879" data-name="Path 3879" d="M13,5h1.89V6.89H13Z" transform="translate(13254.342 -21777.219)" fill="#ee3b4f"/>
    <path id="Path_3880" data-name="Path 3880" d="M17,5h1.89V6.89H17Z" transform="translate(13254.123 -21777.219)" fill="#ee3b4f"/>
    <path id="Path_3881" data-name="Path 3881" d="M21,5h1.89V6.89H21Z" transform="translate(13253.903 -21777.219)" fill="#ee3b4f"/>
    <path id="Path_3882" data-name="Path 3882" d="M48.123,46.342h-1.89V38.781H40.562v7.562h-1.89V40.671H33v7.562H53.794V35H48.123Zm-11.342,0H34.89V42.562h1.89Zm5.671-5.671h1.89v5.671h-1.89Zm7.562-3.781H51.9v9.452h-1.89Z" transform="translate(13253.246 -21778.863)" fill="#ee3b4f"/>
    <path id="Path_3883" data-name="Path 3883" d="M13,26.233H31.9V13H13ZM14.89,14.89H30.014v9.452H14.89Z" transform="translate(13254.342 -21777.658)" fill="#ee3b4f"/>
    <path id="Path_3884" data-name="Path 3884" d="M35,13h1.89v1.89H35Z" transform="translate(13253.138 -21777.658)" fill="#ee3b4f"/>
    <path id="Path_3885" data-name="Path 3885" d="M39,13H57.9v1.89H39Z" transform="translate(13252.917 -21777.658)" fill="#ee3b4f"/>
    <path id="Path_3886" data-name="Path 3886" d="M35,17H57.685v1.89H35Z" transform="translate(13253.138 -21777.877)" fill="#ee3b4f"/>
    <path id="Path_3887" data-name="Path 3887" d="M35,21h5.671v1.89H35Z" transform="translate(13253.138 -21778.096)" fill="#ee3b4f"/>
    <path id="Path_3888" data-name="Path 3888" d="M43,21H58.123v1.89H43Z" transform="translate(13252.699 -21778.096)" fill="#ee3b4f"/>
    <path id="Path_3889" data-name="Path 3889" d="M57,25h1.89v1.89H57Z" transform="translate(13251.932 -21778.316)" fill="#ee3b4f"/>
    <path id="Path_3890" data-name="Path 3890" d="M53,25h1.89v1.89H53Z" transform="translate(13252.15 -21778.316)" fill="#ee3b4f"/>
    <path id="Path_3891" data-name="Path 3891" d="M35,25H50.123v1.89H35Z" transform="translate(13253.138 -21778.316)" fill="#ee3b4f"/>
  </g>
</svg>
