<svg id="trolley" xmlns="http://www.w3.org/2000/svg" width="56.113" height="56.113" viewBox="0 0 56.113 56.113">
  <path id="Path_3900" data-name="Path 3900" d="M41.051,97.956H33.81V89.81h2.715V88H32V99.766H42.861v-5.43h-1.81Zm0,0" transform="translate(-28.38 -78.044)" fill="#ee3b4f"/>
  <path id="Path_3901" data-name="Path 3901" d="M60.794,88.039l-1.17-1.17-1.28,1.28,2.45,2.45,6.975-6.975-1.28-1.28Zm0,0" transform="translate(-51.743 -73.028)" fill="#ee3b4f"/>
  <path id="Path_3902" data-name="Path 3902" d="M292.525,384a4.525,4.525,0,1,0,4.525,4.525A4.531,4.531,0,0,0,292.525,384Zm0,7.24a2.715,2.715,0,1,1,2.715-2.715A2.719,2.719,0,0,1,292.525,391.24Zm0,0" transform="translate(-255.418 -340.557)" fill="#ee3b4f"/>
  <path id="Path_3903" data-name="Path 3903" d="M53.547,5.442,43.659,3.465,39.566,21.652,19.911,17.721V0H5.961L0,5.961V25.341H9.974L7.405,37.159a2.958,2.958,0,0,0-2.338,2.193l-.459,1.835A2.8,2.8,0,0,0,6.816,44.62L29,48.728a8.143,8.143,0,1,0,15.377-4.412l4.544-20-2.9-5.752,1.765-7.725,4.3.861a3.181,3.181,0,0,0,.626.062h.2a3.193,3.193,0,0,0,.626-6.323ZM24.074,20.4l2.745.549L25.606,25.2l-2.745-.549ZM28.6,21.3l2.745.549L30.131,26.1l-2.745-.549ZM5.43,3.09V5.43H3.09ZM1.81,7.24H7.24V1.81H18.1V23.531H1.81Zm18.1,18.1V19.567l2.383.477-1.712,5.993L31.413,28.2l1.712-5.994,6.044,1.209L35.439,40a8.127,8.127,0,0,0-3.656,1.821L9.225,37.306l2.6-11.964ZM6.335,41.866a.979.979,0,0,1,.03-.24l.459-1.835a1.171,1.171,0,0,1,1.344-.851l22.213,4.443A8.08,8.08,0,0,0,29.041,46.9l-21.9-4.055A.992.992,0,0,1,6.335,41.866ZM37.107,54.3a6.335,6.335,0,1,1,6.335-6.335A6.343,6.343,0,0,1,37.107,54.3Zm3.838-13.517,1.186-5.19,2.27.453L42.974,42.33A8.234,8.234,0,0,0,40.945,40.786Zm3.085-13.5,2.259.452L44.8,34.283l-2.267-.453Zm2.983-2.733-.323,1.42-2.257-.452.957-4.188ZM39.24,40.116a8.1,8.1,0,0,0-1.91-.282l6.692-29.745,1.989.4ZM52.92,9.956h-.2a1.361,1.361,0,0,1-.271-.027L44.42,8.323l.615-2.737L53.19,7.217a1.383,1.383,0,0,1-.27,2.739Zm0,0" fill="#ee3b4f"/>
</svg>
