<svg xmlns="http://www.w3.org/2000/svg" width="61.943" height="57.135" viewBox="0 0 61.943 57.135">
  <g id="compatible" transform="translate(0 -19.852)">
    <g id="Group_1416" data-name="Group 1416" transform="translate(0 19.852)">
      <path id="Path_3898" data-name="Path 3898" d="M60.026,68.315h-1.5V41.062A10.873,10.873,0,0,0,44.11,24.792a.908.908,0,0,0,1.163,1.4,9.059,9.059,0,1,1-3.265,6.964,8.972,8.972,0,0,1,.9-3.934.908.908,0,0,0-1.636-.79,10.776,10.776,0,0,0-1.077,4.724c0,.216.007.43.019.643H34.8V22.425a2.576,2.576,0,0,0-2.573-2.573H16.19a2.576,2.576,0,0,0-2.573,2.573v11.37h-7.7a2.5,2.5,0,0,0-2.494,2.494V57.714a.908.908,0,0,0,1.816,0V36.289a.678.678,0,0,1,.677-.677h7.7v2.667H9.837A2.364,2.364,0,0,0,7.475,40.64V63.29a2.364,2.364,0,0,0,2.361,2.361H52.112a2.364,2.364,0,0,0,2.361-2.361V43.48a10.834,10.834,0,0,0,2.232-1.032V68.315H5.243V61.907a.908.908,0,1,0-1.816,0v6.409H1.9a1.9,1.9,0,0,0-1.9,1.9V73a3.993,3.993,0,0,0,3.988,3.988H57.937A3.993,3.993,0,0,0,61.925,73V70.213A1.9,1.9,0,0,0,60.026,68.315ZM34.8,35.611h5.669a10.8,10.8,0,0,0,1.006,2.667H34.8ZM28.421,21.668l-.269,1.188a.131.131,0,0,1-.129.1H20.4a.131.131,0,0,1-.129-.1L20,21.668Zm-12.988.756a.757.757,0,0,1,.756-.756h1.947l.36,1.589a1.938,1.938,0,0,0,1.9,1.518h7.626a1.938,1.938,0,0,0,1.9-1.518l.36-1.589h1.947a.757.757,0,0,1,.756.756V46.83H15.433Zm0,26.222H32.987v3.03a.757.757,0,0,1-.756.756H16.19a.757.757,0,0,1-.756-.756ZM52.657,63.29a.546.546,0,0,1-.545.545H9.837a.546.546,0,0,1-.545-.545V40.64a.546.546,0,0,1,.545-.545h3.78V51.677a2.576,2.576,0,0,0,2.573,2.573H32.231A2.576,2.576,0,0,0,34.8,51.677V40.095h7.9a10.867,10.867,0,0,0,9.953,3.815V63.29Zm-24.69,6.845h5.99v1.409h-5.99ZM60.108,73a2.174,2.174,0,0,1-2.172,2.172H3.988A2.174,2.174,0,0,1,1.816,73V70.213a.082.082,0,0,1,.082-.082l24.252,0v1.55a1.678,1.678,0,0,0,1.676,1.676H34.1a1.678,1.678,0,0,0,1.676-1.676v-1.55l24.252,0a.082.082,0,0,1,.082.082Z" transform="translate(0 -19.852)" fill="#ee3b4f"/>
      <path id="Path_3899" data-name="Path 3899" d="M370.222,93.972a1.842,1.842,0,0,0,2.6,0l6.245-6.244a2.612,2.612,0,0,0-3.694-3.694h0l-3.851,3.851-.613-.613a2.612,2.612,0,0,0-3.694,3.694ZM368.5,88.557a.8.8,0,0,1,1.125,0l1.185,1.185a1.008,1.008,0,0,0,1.423,0l4.424-4.424a.8.8,0,0,1,1.125,1.125l-6.245,6.244a.023.023,0,0,1-.032,0L368.5,89.682a.8.8,0,0,1,0-1.125Z" transform="translate(-322.075 -75.591)" fill="#ee3b4f"/>
      <circle id="Ellipse_80" data-name="Ellipse 80" cx="1.398" cy="1.398" r="1.398" transform="matrix(0.987, -0.16, 0.16, 0.987, 17.763, 15.095)" fill="#ee3b4f"/>
      <circle id="Ellipse_81" data-name="Ellipse 81" cx="1.398" cy="1.398" r="1.398" transform="translate(22.393 17.008) rotate(-67.486)" fill="#ee3b4f"/>
      <circle id="Ellipse_82" data-name="Ellipse 82" cx="1.398" cy="1.398" r="1.398" transform="translate(27.651 14.851)" fill="#ee3b4f"/>
    </g>
  </g>
</svg>
