<svg id="cloud-computing" xmlns="http://www.w3.org/2000/svg" width="57.427" height="57.427" viewBox="0 0 57.427 57.427">
  <g id="Group_1401" data-name="Group 1401">
    <g id="Group_1400" data-name="Group 1400">
      <path id="Path_3892" data-name="Path 3892" d="M0,0V21.535H28.713V0ZM26.321,19.142H2.393V2.393H26.321Z" fill="#ee3b4f"/>
    </g>
  </g>
  <g id="Group_1403" data-name="Group 1403" transform="translate(13.16 20.339)">
    <g id="Group_1402" data-name="Group 1402">
      <rect id="Rectangle_239" data-name="Rectangle 239" width="2.393" height="4.786" fill="#ee3b4f"/>
    </g>
  </g>
  <g id="Group_1405" data-name="Group 1405" transform="translate(7.378 23.928)">
    <g id="Group_1404" data-name="Group 1404">
      <rect id="Rectangle_240" data-name="Rectangle 240" width="13.958" height="2.393" fill="#ee3b4f"/>
    </g>
  </g>
  <g id="Group_1407" data-name="Group 1407" transform="translate(2.395 31.104)">
    <g id="Group_1406" data-name="Group 1406">
      <path id="Path_3893" data-name="Path 3893" d="M22.1,266.754V255.986H19.712v13.16H36.461v-2.393Z" transform="translate(-19.712 -255.986)" fill="#ee3b4f"/>
    </g>
  </g>
  <g id="Group_1409" data-name="Group 1409" transform="translate(13.513 37.437)">
    <g id="Group_1408" data-name="Group 1408">
      <path id="Path_3894" data-name="Path 3894" d="M112.9,308.1l-1.692,1.692,3.94,3.94-3.94,3.94,1.692,1.692,5.631-5.631Z" transform="translate(-111.211 -308.102)" fill="#ee3b4f"/>
    </g>
  </g>
  <g id="Group_1411" data-name="Group 1411" transform="translate(35.892 11.964)">
    <g id="Group_1410" data-name="Group 1410">
      <path id="Path_3895" data-name="Path 3895" d="M295.385,98.462v2.393h14.357v10.767h2.393V98.462Z" transform="translate(-295.385 -98.462)" fill="#ee3b4f"/>
    </g>
  </g>
  <g id="Group_1413" data-name="Group 1413" transform="translate(34.2 7.529)">
    <g id="Group_1412" data-name="Group 1412">
      <path id="Path_3896" data-name="Path 3896" d="M288.784,63.654l-1.692-1.692-5.632,5.631,5.632,5.632,1.692-1.692-3.94-3.94Z" transform="translate(-281.461 -61.962)" fill="#ee3b4f"/>
    </g>
  </g>
  <g id="Group_1415" data-name="Group 1415" transform="translate(24.057 34.34)">
    <g id="Group_1414" data-name="Group 1414">
      <path id="Path_3897" data-name="Path 3897" d="M228,293.1a5.872,5.872,0,0,0-.347-2.73,6.447,6.447,0,0,0-5.41-4.141,6.587,6.587,0,0,0-4.145.987,8.412,8.412,0,0,0-15.877,3.03,7.846,7.846,0,0,0,.21,2.37,6.348,6.348,0,0,0-4.45,6.032c0,3.409,2.174,7.051,8.274,7.051h18.513a6.921,6.921,0,0,0,6.584-7.051A6.354,6.354,0,0,0,228,293.1Zm-3.232,10.207H206.259c-5.117,0-5.881-2.918-5.881-4.658a4.019,4.019,0,0,1,3.738-3.948l1.671-.155-.691-1.529a5.482,5.482,0,0,1-.483-2.622,5.955,5.955,0,0,1,5.908-5.389h.048a5.941,5.941,0,0,1,5.83,4.51l.529,2.34,1.55-1.83a4.107,4.107,0,0,1,3.544-1.413,4.041,4.041,0,0,1,3.392,2.595,3.506,3.506,0,0,1,.084,2.267l-.309,1.082,1.061.375a3.993,3.993,0,0,1,2.712,3.718C228.962,300.852,227.241,303.307,224.771,303.307Z" transform="translate(-197.985 -282.613)" fill="#ee3b4f"/>
    </g>
  </g>
</svg>
