<svg id="dashboard" xmlns="http://www.w3.org/2000/svg" width="64.744" height="56.867" viewBox="0 0 64.744 56.867">
  <path id="Path_3908" data-name="Path 3908" d="M63.48,0H1.265A1.264,1.264,0,0,0,0,1.265V55.6a1.264,1.264,0,0,0,1.265,1.265H27.314a1.265,1.265,0,0,0,0-2.529H2.529v-42.3H62.215v42.3H37.43a1.265,1.265,0,0,0,0,2.529H63.48A1.264,1.264,0,0,0,64.744,55.6V1.265A1.264,1.264,0,0,0,63.48,0ZM2.529,9.512V2.529H62.215V9.512Zm0,0" transform="translate(0 0)" fill="#ee3b4f" fill-rule="evenodd"/>
  <path id="Path_3909" data-name="Path 3909" d="M441.749,37.609H439.8a1.265,1.265,0,0,0,0,2.529h1.946a1.265,1.265,0,1,0,0-2.529Zm0,0" transform="translate(-383.084 -32.854)" fill="#ee3b4f" fill-rule="evenodd"/>
  <path id="Path_3910" data-name="Path 3910" d="M349.718,37.609h-1.946a1.265,1.265,0,0,0,0,2.529h1.946a1.265,1.265,0,0,0,0-2.529Zm0,0" transform="translate(-302.691 -32.854)" fill="#ee3b4f" fill-rule="evenodd"/>
  <path id="Path_3911" data-name="Path 3911" d="M395.734,37.609h-1.946a1.265,1.265,0,1,0,0,2.529h1.946a1.265,1.265,0,1,0,0-2.529Zm0,0" transform="translate(-342.888 -32.854)" fill="#ee3b4f" fill-rule="evenodd"/>
  <path id="Path_3912" data-name="Path 3912" d="M79.769,131.913H90.387a1.264,1.264,0,0,0,1.265-1.265V116.487a1.264,1.264,0,0,0-1.265-1.265H37.28a1.264,1.264,0,0,0-1.265,1.265v14.161a1.264,1.264,0,0,0,1.265,1.265ZM38.545,117.752H89.122v11.632H80.177l-10.219-7.421a1.264,1.264,0,0,0-1.12-.184l-7.288,2.278-3.161-4.134a1.264,1.264,0,0,0-1.92-.1l-9.111,9.566H38.545Zm12.306,11.632,6.428-6.749,2.8,3.661a1.265,1.265,0,0,0,1.382.439l7.526-2.352,6.887,5Zm0,0" transform="translate(-31.461 -100.652)" fill="#ee3b4f" fill-rule="evenodd"/>
  <path id="Path_3913" data-name="Path 3913" d="M70.327,360.59H50.784a1.265,1.265,0,1,0,0,2.529H70.328a1.265,1.265,0,1,0,0-2.529Zm0,0" transform="translate(-43.258 -314.992)" fill="#ee3b4f" fill-rule="evenodd"/>
  <path id="Path_3914" data-name="Path 3914" d="M70.327,322.586H50.784a1.265,1.265,0,0,0,0,2.529H70.328a1.265,1.265,0,1,0,0-2.529Zm0,0" transform="translate(-43.258 -281.794)" fill="#ee3b4f" fill-rule="evenodd"/>
  <path id="Path_3915" data-name="Path 3915" d="M70.327,284.582H50.784a1.265,1.265,0,1,0,0,2.529H70.328a1.265,1.265,0,1,0,0-2.529Zm0,0" transform="translate(-43.258 -248.596)" fill="#ee3b4f" fill-rule="evenodd"/>
  <path id="Path_3916" data-name="Path 3916" d="M308.741,284.582H289.2a1.265,1.265,0,0,0,0,2.529h19.544a1.265,1.265,0,1,0,0-2.529Zm0,0" transform="translate(-251.523 -248.596)" fill="#ee3b4f" fill-rule="evenodd"/>
  <path id="Path_3917" data-name="Path 3917" d="M308.741,360.59H289.2a1.265,1.265,0,0,0,0,2.529h19.544a1.265,1.265,0,1,0,0-2.529Zm0,0" transform="translate(-251.523 -314.992)" fill="#ee3b4f" fill-rule="evenodd"/>
  <path id="Path_3918" data-name="Path 3918" d="M308.741,322.586H289.2a1.265,1.265,0,0,0,0,2.529h19.544a1.265,1.265,0,1,0,0-2.529Zm0,0" transform="translate(-251.523 -281.794)" fill="#ee3b4f" fill-rule="evenodd"/>
  <path id="Path_3919" data-name="Path 3919" d="M247.265,429.707a1.265,1.265,0,1,0,1.265,1.265A1.267,1.267,0,0,0,247.265,429.707Zm0,0" transform="translate(-214.892 -375.369)" fill="#ee3b4f" fill-rule="evenodd"/>
</svg>
