<svg xmlns="http://www.w3.org/2000/svg" width="58" height="58" viewBox="0 0 58 58">
  <g id="Group_1651" data-name="Group 1651" transform="translate(-143 -1021)">
    <g id="supplier" transform="translate(142 1020)">
      <path id="Path_3853" data-name="Path 3853" d="M33,61.452H61.065V39H33ZM44.226,40.871h5.613v1.871H44.226Zm-9.355,0h7.484v3.742H51.71V40.871h7.484v18.71H34.871Z" transform="translate(-2.065 -2.452)" fill="#ee3b4f"/>
      <path id="Path_3854" data-name="Path 3854" d="M57,57h1.871v1.871H57Z" transform="translate(-3.613 -3.613)" fill="#ee3b4f"/>
      <path id="Path_3855" data-name="Path 3855" d="M53,57h1.871v1.871H53Z" transform="translate(-3.355 -3.613)" fill="#ee3b4f"/>
      <path id="Path_3856" data-name="Path 3856" d="M49,57h1.871v1.871H49Z" transform="translate(-3.097 -3.613)" fill="#ee3b4f"/>
      <path id="Path_3857" data-name="Path 3857" d="M57.129,19.71H55.258V1H30.935V19.71H29.065V1H4.742V19.71H2.871A1.873,1.873,0,0,0,1,21.581v1.871a1.873,1.873,0,0,0,1.871,1.871H7.794A7.426,7.426,0,0,0,10.9,33.429,14.056,14.056,0,0,0,1,46.839a4.68,4.68,0,0,0,2.806,4.281V59H29.065V46.839a14.056,14.056,0,0,0-9.9-13.41,7.426,7.426,0,0,0,3.108-8.106H57.129A1.873,1.873,0,0,0,59,23.452V21.581A1.873,1.873,0,0,0,57.129,19.71ZM40.29,2.871H45.9V4.742H40.29Zm-7.484,0h5.613V6.613h9.355V2.871h5.613V19.71H47.774V15.968H38.419V19.71H32.806ZM45.9,19.71H40.29V17.839H45.9ZM14.1,2.871H19.71V4.742H14.1Zm-7.484,0h5.613V6.613h9.355V2.871h5.613V19.71H21.581V15.968H12.226V19.71H6.613ZM14.1,19.71V17.839H19.71V19.71ZM2.871,23.452V21.581H10.1a7.548,7.548,0,0,0-1.538,1.871ZM5.677,51.516H9.419v5.613H5.677Zm8.887-6.548H11.29V40.29h6.548v4.677h4.677V57.129H11.29V51.516h3.274a3.274,3.274,0,0,0,0-6.548Zm5.145-3.355L21.193,43.1H19.71Zm7.484,5.226v10.29H24.387V43.645l-5.226-5.226H9.419v6.548H6.613v1.871h7.952a1.4,1.4,0,0,1,0,2.806H5.677a2.81,2.81,0,0,1-2.806-2.806,12.161,12.161,0,0,1,24.323,0ZM15.032,32.806a5.613,5.613,0,1,1,5.613-5.613A5.619,5.619,0,0,1,15.032,32.806Zm42.1-9.355H21.5a7.527,7.527,0,0,0-1.538-1.871H57.129Z" fill="#ee3b4f"/>
      <path id="Path_3858" data-name="Path 3858" d="M49,53h9.355v1.871H49Z" transform="translate(-3.097 -3.355)" fill="#ee3b4f"/>
    </g>
  </g>
</svg>
