<svg id="instagram_1_" data-name="instagram (1)" xmlns="http://www.w3.org/2000/svg" width="15.495" height="15.495" viewBox="0 0 15.495 15.495">
  <path id="Path_3264" data-name="Path 3264" d="M3.665,407.169H5.514L2.6,405.3.2,403.9A3.477,3.477,0,0,0,3.665,407.169Z" transform="translate(-0.192 -391.675)" fill="#fde494"/>
  <path id="Path_3265" data-name="Path 3265" d="M10.152,339.236,8.063,338.7H3.473a1.872,1.872,0,0,1-1.87-1.87v-1.025l-.8-.86-.8.142v1.744c0,.068,0,.135.006.2L5.322,340.3H11.64Z" transform="translate(0 -324.81)" fill="#fea150"/>
  <path id="Path_3266" data-name="Path 3266" d="M271.744,440.14a1.864,1.864,0,0,1-1.344.572h-3.958l3.577,1.6h.382a3.474,3.474,0,0,0,2.955-1.65l-.818-.487Z" transform="translate(-258.379 -426.82)" fill="#ff5d4a"/>
  <path id="Path_3267" data-name="Path 3267" d="M442.181,319.256v2.156a1.863,1.863,0,0,1-.526,1.3l1.611.525a3.451,3.451,0,0,0,.518-1.823v-1.9l-.829-.466Z" transform="translate(-428.289 -309.39)" fill="#e45261"/>
  <path id="Path_3268" data-name="Path 3268" d="M460.637,142.677l-.853-.2-.749.449v5.106l1.6.255Z" transform="translate(-445.142 -138.162)" fill="#ff4d95"/>
  <path id="Path_3269" data-name="Path 3269" d="M315.383,4.645a3.478,3.478,0,0,0-2.97-3.436l-2.1.874-1.065.692h2.663a1.872,1.872,0,0,1,1.87,1.87V5.933l1.6-.245Z" transform="translate(-299.888 -1.172)" fill="#cb319c"/>
  <path id="Path_3270" data-name="Path 3270" d="M203.8,0l-1.988.746-1.568.857h3.3L206.71.037a3.488,3.488,0,0,0-.5-.037Z" transform="translate(-194.185)" fill="#8a3293"/>
  <path id="Path_3271" data-name="Path 3271" d="M134.81,341.015a4.519,4.519,0,0,0,1.581-.284l-2.6-1.182-2.759-.565A4.541,4.541,0,0,0,134.81,341.015Z" transform="translate(-127.063 -328.726)" fill="#ff5d4a"/>
  <path id="Path_3272" data-name="Path 3272" d="M113.339,266.637a2.67,2.67,0,0,1-4.782-.76l-.717-.448-1.236.137a4.513,4.513,0,0,0,.739,2.089l5.363,1.746a4.566,4.566,0,0,0,2.586-2.453l-.961-.487Z" transform="translate(-103.378 -257.396)" fill="#e45261"/>
  <g id="Group_464" data-name="Group 464" transform="translate(3.206 4.972)">
    <path id="Path_3273" data-name="Path 3273" d="M107.8,195.281a2.659,2.659,0,0,1,.643-1.735l-1.14-.159-1.158.511a4.524,4.524,0,0,0-.216,1.384c0,.143.007.283.02.423l1.953.311A2.662,2.662,0,0,1,107.8,195.281Z" transform="translate(-105.931 -192.506)" fill="#ff4d95"/>
    <path id="Path_3274" data-name="Path 3274" d="M305.95,167.077a4.516,4.516,0,0,0-.83-2.614l-1.132-.161-1.163.512a2.668,2.668,0,0,1,.8,3.757l1.953.311A4.514,4.514,0,0,0,305.95,167.077Z" transform="translate(-296.867 -164.302)" fill="#ff4d95"/>
  </g>
  <g id="Group_465" data-name="Group 465" transform="translate(3.422 2.404)">
    <path id="Path_3275" data-name="Path 3275" d="M117.389,107.8a2.655,2.655,0,0,1,1.417.408l2.294-.351a4.54,4.54,0,0,0-8.037,1.231l2.3-.352A2.666,2.666,0,0,1,117.389,107.8Z" transform="translate(-113.063 -105.13)" fill="#cb319c"/>
    <path id="Path_3276" data-name="Path 3276" d="M363,81.586a1.069,1.069,0,1,0-1.069-1.069A1.07,1.07,0,0,0,363,81.586Z" transform="translate(-354.4 -79.449)" fill="#cb319c"/>
  </g>
  <path id="Path_3277" data-name="Path 3277" d="M1.6,296.838l-.772-.385L0,296.316v1.311l1.6.718Z" transform="translate(0 -287.349)" fill="#ff5d4a"/>
  <path id="Path_3278" data-name="Path 3278" d="M0,251.588v1.31l1.6.522v-1.578l-.833-.3Z" transform="translate(0 -243.931)" fill="#e45261"/>
  <path id="Path_3279" data-name="Path 3279" d="M1.6,219.24l-.824-.007L0,219.486v.769l1.6.255Z" transform="translate(0 -212.598)" fill="#ff4d95"/>
  <path id="Path_3280" data-name="Path 3280" d="M1.6,179.757l-.849.086L0,180.55v.654l1.6-.245Z" transform="translate(0 -174.317)" fill="#cb319c"/>
  <path id="Path_3281" data-name="Path 3281" d="M0,121.983l1.6-.793v-1.828l-.94.09L0,120.085Z" transform="translate(0 -115.75)" fill="#8a3293"/>
  <path id="Path_3282" data-name="Path 3282" d="M6.206,0,2.548,1.407.042,2.933A3.487,3.487,0,0,0,0,3.473v.862l1.6-.723V3.473A1.872,1.872,0,0,1,3.473,1.6H6.06L9.615,0Z" fill="#523494"/>
  <path id="Path_3283" data-name="Path 3283" d="M4.818,0A3.478,3.478,0,0,0,1.387,2.933L7.551,0Z" transform="translate(-1.345)" fill="#2d2d87"/>
</svg>
