<svg xmlns="http://www.w3.org/2000/svg" width="11.857" height="11.928" viewBox="0 0 11.857 11.928">
  <g id="_031-linkedin" data-name="031-linkedin" transform="translate(0 -0.363)">
    <rect id="Rectangle_231" data-name="Rectangle 231" width="2.652" height="8.152" transform="translate(0 4.139)" fill="#1976d2"/>
    <path id="Path_3259" data-name="Path 3259" d="M166.169,160.1c-.028-.009-.055-.019-.084-.027s-.071-.015-.107-.021A2.376,2.376,0,0,0,165.5,160h0a3.684,3.684,0,0,0-2.849,1.558V160H160v8.152h2.652v-4.446s2-2.791,2.849-.741v5.187h2.651v-5.5A2.644,2.644,0,0,0,166.169,160.1Z" transform="translate(-156.295 -155.861)" fill="#1976d2"/>
    <ellipse id="Ellipse_54" data-name="Ellipse 54" cx="1" cy="1.5" rx="1" ry="1.5" transform="translate(0.875 0.363)" fill="#1976d2"/>
  </g>
</svg>
