<svg xmlns="http://www.w3.org/2000/svg" width="16.28" height="13.227" viewBox="0 0 16.28 13.227">
  <path id="_013-twitter-1" data-name="013-twitter-1" d="M16.28,49.566a6.958,6.958,0,0,1-1.923.527,3.319,3.319,0,0,0,1.468-1.845,6.67,6.67,0,0,1-2.116.808,3.337,3.337,0,0,0-5.773,2.282,3.437,3.437,0,0,0,.077.761,9.447,9.447,0,0,1-6.879-3.491,3.338,3.338,0,0,0,1.026,4.461,3.3,3.3,0,0,1-1.508-.411v.037a3.353,3.353,0,0,0,2.674,3.279,3.331,3.331,0,0,1-.875.11,2.951,2.951,0,0,1-.632-.057,3.369,3.369,0,0,0,3.119,2.325A6.706,6.706,0,0,1,.8,59.775a6.252,6.252,0,0,1-.8-.046,9.4,9.4,0,0,0,5.12,1.5,9.434,9.434,0,0,0,9.5-9.5c0-.148-.005-.29-.012-.431A6.658,6.658,0,0,0,16.28,49.566Z" transform="translate(0 -48)" fill="#03a9f4"/>
</svg>
