<svg id="_002-youtube" data-name="002-youtube" xmlns="http://www.w3.org/2000/svg" width="14.221" height="9.777" viewBox="0 0 14.221 9.777">
  <path id="Path_3257" data-name="Path 3257" d="M13.616,80.942c-.386-.686-.8-.812-1.657-.86S8.967,80,7.112,80s-4,.024-4.851.081-1.27.174-1.659.861A8.388,8.388,0,0,0,0,84.886v.007a8.357,8.357,0,0,0,.6,3.937c.389.686.808.811,1.659.868s2.993.079,4.852.079,4-.029,4.848-.078,1.271-.182,1.657-.868a8.3,8.3,0,0,0,.6-3.937v-.007A8.322,8.322,0,0,0,13.616,80.942Z" transform="translate(0 -80)" fill="#f44336"/>
  <path id="Path_3258" data-name="Path 3258" d="M192,165.333V160l4.444,2.666Z" transform="translate(-186.667 -157.778)" fill="#fafafa"/>
</svg>
